<svg xmlns="http://www.w3.org/2000/svg" viewBox="0 0 320 220" role="img" aria-label="Relationship-aware safety unlearning training and inference figure">
  <defs>
    <marker id="arrow" viewBox="0 0 10 10" refX="8.5" refY="5" markerWidth="5" markerHeight="5" orient="auto-start-reverse">
      <path d="M 0 0 L 10 5 L 0 10 z" fill="#111827"/>
    </marker>
  </defs>

  <rect x="1" y="1" width="318" height="218" rx="18" fill="#ffffff" stroke="#d1d5db"/>

  <text x="160" y="16" font-family="Lato, Segoe UI, sans-serif" font-size="10" font-weight="700" text-anchor="middle" fill="#111827">Training Phase</text>
  <text x="261" y="16" font-family="Lato, Segoe UI, sans-serif" font-size="10" font-weight="700" text-anchor="middle" fill="#111827">Inference Phase</text>
  <path d="M 205 10 L 205 210" stroke="#6b7280" stroke-width="1.5" stroke-dasharray="4 4"/>

  <rect x="20" y="20" width="64" height="30" rx="8" fill="#b8ecfb" stroke="#334155"/>
  <text x="52" y="28" font-family="Lato, Segoe UI, sans-serif" font-size="5.6" text-anchor="middle" fill="#334155">Relationship to Unlearn</text>
  <rect x="24" y="30" width="16" height="11" rx="5" fill="#ffffff" stroke="#64748b"/>
  <rect x="64" y="30" width="16" height="11" rx="5" fill="#ffffff" stroke="#64748b"/>
  <text x="32" y="38" font-family="Lato, Segoe UI, sans-serif" font-size="5.5" text-anchor="middle" fill="#334155">Obj_1</text>
  <text x="72" y="38" font-family="Lato, Segoe UI, sans-serif" font-size="5.5" text-anchor="middle" fill="#334155">Obj_2</text>
  <text x="52" y="37" font-family="Lato, Segoe UI, sans-serif" font-size="5.5" text-anchor="middle" fill="#334155">Relation</text>
  <path d="M 40 35 L 64 35" stroke="#64748b" stroke-width="1"/>
  <path d="M 52 50 L 52 64" stroke="#111827" stroke-width="1.4" marker-end="url(#arrow)"/>

  <rect x="10" y="64" width="86" height="130" rx="12" fill="#85efc7" stroke="#16a34a"/>
  <rect x="22" y="72" width="62" height="12" rx="4" fill="#ffffff" stroke="#94a3b8"/>
  <text x="53" y="80" font-family="Lato, Segoe UI, sans-serif" font-size="6.7" font-weight="700" text-anchor="middle" fill="#0f766e">Obj1 - Rel1 - Obj2</text>
  <path d="M 53 85 L 53 102" stroke="#065f46" stroke-width="1.8" marker-end="url(#arrow)"/>

  <circle cx="26" cy="116" r="8" fill="#ffffff" stroke="#334155"/>
  <circle cx="82" cy="116" r="8" fill="#ffffff" stroke="#334155"/>
  <circle cx="26" cy="168" r="8" fill="#ffffff" stroke="#334155"/>
  <circle cx="82" cy="168" r="8" fill="#ffffff" stroke="#334155"/>
  <text x="26" y="119" font-family="Lato, Segoe UI, sans-serif" font-size="5.3" text-anchor="middle" fill="#334155">Obj_1</text>
  <text x="82" y="119" font-family="Lato, Segoe UI, sans-serif" font-size="5.3" text-anchor="middle" fill="#334155">Obj_2</text>
  <text x="26" y="171" font-family="Lato, Segoe UI, sans-serif" font-size="5.3" text-anchor="middle" fill="#334155">Obj_3</text>
  <text x="82" y="171" font-family="Lato, Segoe UI, sans-serif" font-size="5.3" text-anchor="middle" fill="#334155">Obj_4</text>

  <path d="M 34 111 C 45 102, 63 102, 74 111" fill="none" stroke="#0f766e" stroke-width="1.1" marker-end="url(#arrow)"/>
  <path d="M 74 121 C 63 130, 45 130, 34 121" fill="none" stroke="#ef4444" stroke-width="1.1" marker-end="url(#arrow)"/>
  <path d="M 26 124 L 26 160" stroke="#0f766e" stroke-width="1.1" marker-end="url(#arrow)"/>
  <path d="M 82 124 L 82 160" stroke="#0f766e" stroke-width="1.1" marker-end="url(#arrow)"/>
  <text x="53" y="106" font-family="Lato, Segoe UI, sans-serif" font-size="5.5" text-anchor="middle" fill="#0f766e">Rel_2</text>
  <text x="53" y="129" font-family="Lato, Segoe UI, sans-serif" font-size="5.5" text-anchor="middle" fill="#ef4444">Rel_1</text>
  <text x="21" y="143" font-family="Lato, Segoe UI, sans-serif" font-size="5.2" text-anchor="middle" fill="#0f766e">Rel_1</text>
  <text x="87" y="143" font-family="Lato, Segoe UI, sans-serif" font-size="5.2" text-anchor="middle" fill="#0f766e">Rel_1</text>

  <rect x="108" y="64" width="74" height="58" rx="10" fill="#082f49" stroke="#0f172a"/>
  <path d="M 132 95 L 132 78 L 146 95 L 160 78 L 160 95" fill="none" stroke="#ecfdf5" stroke-width="2.1" stroke-linecap="round" stroke-linejoin="round"/>
  <circle cx="132" cy="78" r="2.1" fill="#ecfdf5"/>
  <circle cx="132" cy="95" r="2.1" fill="#ecfdf5"/>
  <circle cx="146" cy="95" r="2.1" fill="#ecfdf5"/>
  <circle cx="146" cy="78" r="2.1" fill="#ecfdf5"/>
  <circle cx="160" cy="78" r="2.1" fill="#ecfdf5"/>
  <circle cx="160" cy="95" r="2.1" fill="#ecfdf5"/>
  <text x="145" y="114" font-family="Lato, Segoe UI, sans-serif" font-size="7.5" font-weight="700" text-anchor="middle" fill="#f8fafc">Pretrained Model</text>

  <rect x="108" y="152" width="74" height="46" rx="8" fill="#d9f3f8" stroke="#1e3a8a"/>
  <text x="145" y="161" font-family="Lato, Segoe UI, sans-serif" font-size="5.8" text-anchor="middle" fill="#1e3a8a">Loss Function</text>
  <text x="145" y="175" font-family="Times New Roman, serif" font-size="8" text-anchor="middle" fill="#1e3a8a">L    = L  + (α · L ) + (β · L ) +</text>
  <text x="123" y="177.5" font-family="Times New Roman, serif" font-size="4.8" text-anchor="middle" fill="#1e3a8a">Total</text>
  <text x="137" y="177.5" font-family="Times New Roman, serif" font-size="4.8" text-anchor="middle" fill="#1e3a8a">3</text>
  <text x="160" y="177.5" font-family="Times New Roman, serif" font-size="4.8" text-anchor="middle" fill="#1e3a8a">2</text>
  <text x="182" y="177.5" font-family="Times New Roman, serif" font-size="4.8" text-anchor="middle" fill="#1e3a8a">1</text>
  <text x="145" y="188" font-family="Times New Roman, serif" font-size="7.6" text-anchor="middle" fill="#1e3a8a">(δ · L ) + (γ · L ) + (λ    - λ   )</text>
  <text x="129" y="190.2" font-family="Times New Roman, serif" font-size="4.8" text-anchor="middle" fill="#1e3a8a">4</text>
  <text x="152" y="190.2" font-family="Times New Roman, serif" font-size="4.8" text-anchor="middle" fill="#1e3a8a">cl</text>
  <text x="171" y="190.2" font-family="Times New Roman, serif" font-size="4.8" text-anchor="middle" fill="#1e3a8a">adv</text>
  <text x="181" y="190.2" font-family="Times New Roman, serif" font-size="4.8" text-anchor="middle" fill="#1e3a8a">out</text>

  <path d="M 96 180 L 108 180" stroke="#111827" stroke-width="1.5" marker-end="url(#arrow)"/>
  <path d="M 145 152 L 145 126" stroke="#6b2d1f" stroke-width="1.5" marker-end="url(#arrow)"/>
  <text x="147" y="141" font-family="Lato, Segoe UI, sans-serif" font-size="5.9" fill="#3f2a20">Optimization</text>
  <path d="M 182 93 L 224 93 L 224 130" stroke="#374151" stroke-width="1.5" fill="none" marker-end="url(#arrow)"/>

  <rect x="223" y="60" width="72" height="24" rx="5" fill="#f6b6b8" stroke="#7f1d1d"/>
  <text x="247" y="70" font-family="Lato, Segoe UI, sans-serif" font-size="5.6" font-weight="700" fill="#111827">Harmful relational</text>
  <text x="247" y="77" font-family="Lato, Segoe UI, sans-serif" font-size="5.6" font-weight="700" fill="#111827">prompt</text>
  <rect x="282" y="65" width="10" height="14" rx="1.5" fill="#ffd5d6" stroke="#7f1d1d"/>
  <path d="M 286 75 L 289 72 L 291 74" fill="none" stroke="#7f1d1d" stroke-width="1.3"/>
  <path d="M 289 68 L 292 65" stroke="#7f1d1d" stroke-width="1.3"/>
  <path d="M 258 84 L 258 101" stroke="#111827" stroke-width="1.4" marker-end="url(#arrow)"/>

  <rect x="223" y="101" width="72" height="58" fill="#6a1176" stroke="#4c0f55"/>
  <path d="M 248 135 L 248 115 L 266 135 L 284 115 L 284 135" fill="none" stroke="#f8fafc" stroke-width="2.2" stroke-linecap="round" stroke-linejoin="round"/>
  <circle cx="248" cy="115" r="2.3" fill="#f8fafc"/>
  <circle cx="248" cy="135" r="2.3" fill="#f8fafc"/>
  <circle cx="266" cy="135" r="2.3" fill="#f8fafc"/>
  <circle cx="266" cy="115" r="2.3" fill="#f8fafc"/>
  <circle cx="284" cy="115" r="2.3" fill="#f8fafc"/>
  <circle cx="284" cy="135" r="2.3" fill="#f8fafc"/>
  <text x="259" y="152" font-family="Lato, Segoe UI, sans-serif" font-size="7.3" font-weight="700" text-anchor="middle" fill="#ffffff">Unlearned Model</text>

  <path d="M 259 159 L 259 178" stroke="#111827" stroke-width="1.4" marker-end="url(#arrow)"/>
  <rect x="223" y="178" width="72" height="24" rx="5" fill="#c8f5b3" stroke="#4d7c0f"/>
  <text x="244" y="191" font-family="Lato, Segoe UI, sans-serif" font-size="7" font-weight="700" text-anchor="middle" fill="#111827">Safe Response</text>
  <rect x="281" y="184" width="10" height="9" fill="#0ea5e9"/>
  <path d="M 281 193 L 285 189 L 288 191 L 291 188 L 291 193 Z" fill="#16a34a"/>
  <circle cx="284" cy="186" r="1.2" fill="#fde047"/>
</svg>
